<svg width="24" height="24" viewBox="0 0 24 24" fill="none" xmlns="http://www.w3.org/2000/svg">
<path d="M3.38009 15.95C3.25009 16.08 3.16009 16.24 3.12009 16.41L2.04009 20.75C1.95009 21.09 2.05009 21.45 2.30009 21.7C2.49009 21.89 2.75009 21.99 3.01009 21.99C3.09009 21.99 3.17009 21.99 3.25009 21.96L7.59009 20.87C7.77009 20.83 7.93009 20.74 8.05009 20.61L18.2001 10.46L13.5301 5.79L3.38009 15.95ZM19.6701 2.61C18.8601 1.8 17.5301 1.8 16.7201 2.61L14.9401 4.39L19.6101 9.06L21.3901 7.28C22.2001 6.47 22.2001 5.15 21.3901 4.33L19.6701 2.61Z" fill="black"/>
</svg>
